<?xml version="1.0" encoding="UTF-8" standalone="no"?>
<svg
   width="42"
   height="32"
   viewBox="0 0 42 32"
   fill="none"
   version="1.1"
   id="svg22"
   sodipodi:docname="hbs.svg"
   xml:space="preserve"
   inkscape:version="1.3.2 (091e20e, 2023-11-25, custom)"
   xmlns:inkscape="http://www.inkscape.org/namespaces/inkscape"
   xmlns:sodipodi="http://sodipodi.sourceforge.net/DTD/sodipodi-0.dtd"
   xmlns:xlink="http://www.w3.org/1999/xlink"
   xmlns="http://www.w3.org/2000/svg"
   xmlns:svg="http://www.w3.org/2000/svg"><sodipodi:namedview
     id="namedview22"
     pagecolor="#ffffff"
     bordercolor="#000000"
     borderopacity="0.25"
     inkscape:showpageshadow="2"
     inkscape:pageopacity="0.0"
     inkscape:pagecheckerboard="0"
     inkscape:deskcolor="#d1d1d1"
     inkscape:zoom="7.453125"
     inkscape:cx="36.696017"
     inkscape:cy="16.033543"
     inkscape:window-width="1366"
     inkscape:window-height="715"
     inkscape:window-x="-8"
     inkscape:window-y="-8"
     inkscape:window-maximized="1"
     inkscape:current-layer="svg22" /><defs
     id="defs22"><linearGradient
       id="linearGradient24"
       inkscape:collect="always"><stop
         style="stop-color:#ffdb6e;stop-opacity:1;"
         offset="0"
         id="stop24" /><stop
         style="stop-color:#ffbc5e;stop-opacity:1;"
         offset="1"
         id="stop25" /></linearGradient><linearGradient
       id="paint0_linear"
       x1="3.69867"
       y1="4.89825"
       x2="22.5688"
       y2="37.2522"
       gradientUnits="userSpaceOnUse"><stop
         offset="0.259336"
         stop-color="#FFDB6E"
         id="stop5" /><stop
         offset="1"
         stop-color="#FFBC5E"
         id="stop6" /></linearGradient><linearGradient
       id="paint1_linear"
       x1="1.17724"
       y1="18.7359"
       x2="2.78931"
       y2="19.2346"
       gradientUnits="userSpaceOnUse"><stop
         offset="0.259336"
         stop-color="#FFDB6E"
         id="stop7" /><stop
         offset="1"
         stop-color="#FFBC5E"
         id="stop8" /></linearGradient><linearGradient
       id="paint2_linear"
       x1="1.17724"
       y1="18.7359"
       x2="2.78931"
       y2="19.2346"
       gradientUnits="userSpaceOnUse"><stop
         offset="0.259336"
         stop-color="#FFDB6E"
         id="stop9" /><stop
         offset="1"
         stop-color="#FFBC5E"
         id="stop10" /></linearGradient><linearGradient
       id="paint3_linear"
       x1="3.26667"
       y1="0.900025"
       x2="27.6816"
       y2="36.6089"
       gradientUnits="userSpaceOnUse"><stop
         offset="0.259336"
         stop-color="#FFDB6E"
         id="stop11" /><stop
         offset="1"
         stop-color="#FFBC5E"
         id="stop12" /></linearGradient><linearGradient
       id="paint4_linear"
       x1="3.26667"
       y1="0.900025"
       x2="27.6816"
       y2="36.6089"
       gradientUnits="userSpaceOnUse"><stop
         offset="0.259336"
         stop-color="#FFDB6E"
         id="stop13" /><stop
         offset="1"
         stop-color="#FFBC5E"
         id="stop14" /></linearGradient><linearGradient
       id="paint5_linear"
       x1="14.1208"
       y1="12.223"
       x2="27.511"
       y2="27.0155"
       gradientUnits="userSpaceOnUse"><stop
         offset="0.259336"
         stop-color="#FFDB6E"
         id="stop15" /><stop
         offset="1"
         stop-color="#FFBC5E"
         id="stop16" /></linearGradient><linearGradient
       id="paint6_linear"
       x1="14.1208"
       y1="12.223"
       x2="27.511"
       y2="27.0155"
       gradientUnits="userSpaceOnUse"><stop
         offset="0.259336"
         stop-color="#FFDB6E"
         id="stop17" /><stop
         offset="1"
         stop-color="#FFBC5E"
         id="stop18" /></linearGradient><linearGradient
       id="paint7_linear"
       x1="16.2288"
       y1="14.5995"
       x2="25.5157"
       y2="24.8592"
       gradientUnits="userSpaceOnUse"><stop
         offset="0.259336"
         stop-color="#FFDB6E"
         id="stop19" /><stop
         offset="1"
         stop-color="#FFBC5E"
         id="stop20" /></linearGradient><linearGradient
       id="paint8_linear"
       x1="16.2288"
       y1="14.5995"
       x2="25.5157"
       y2="24.8592"
       gradientUnits="userSpaceOnUse"><stop
         offset="0.259336"
         stop-color="#FFDB6E"
         id="stop21" /><stop
         offset="1"
         stop-color="#FFBC5E"
         id="stop22" /></linearGradient><linearGradient
       inkscape:collect="always"
       xlink:href="#linearGradient24"
       id="linearGradient25"
       x1="12.880503"
       y1="4.8301888"
       x2="25.626835"
       y2="26.968554"
       gradientUnits="userSpaceOnUse" /></defs><path
     style="fill:url(#linearGradient25);fill-opacity:1"
     d="m 23.936345,30.720472 c 0.03339,-0.132102 0.172516,-0.779834 0.309158,-1.439403 0.136641,-0.65957 0.266701,-1.218811 0.289021,-1.242758 0.02232,-0.02395 0.395085,0.07556 0.828364,0.221134 1.558334,0.523562 2.990628,0.735548 3.542727,0.52434 0.539816,-0.206508 1.068452,-0.795498 1.236285,-1.377432 0.06613,-0.229285 0.05967,-0.364024 -0.03829,-0.799479 -0.142366,-0.632802 -0.16081,-1.216175 -0.04525,-1.431129 0.04689,-0.08721 0.307435,-0.303662 0.578999,-0.481008 0.512445,-0.334654 0.569484,-0.419295 0.67129,-0.99613 0.04152,-0.235269 0.02472,-0.271503 -0.244888,-0.527971 -0.159208,-0.151451 -0.260215,-0.286934 -0.224459,-0.301073 1.168925,-0.462236 1.313709,-0.578057 1.400414,-1.120282 0.03733,-0.233421 0.01825,-0.289363 -0.163557,-0.479604 -0.452879,-0.473895 -0.149481,-0.949429 0.60575,-0.949429 0.6498,0 0.95165,-0.340045 0.946235,-1.065971 -0.003,-0.400688 -0.04933,-0.534732 -0.620045,-1.793663 -0.743954,-1.641062 -1.238442,-2.865098 -1.388358,-3.436688 -0.0985,-0.375535 -0.100729,-0.475205 -0.01967,-0.877834 C 31.979806,11.259904 31.412399,8.330463 30.275729,6.308704 29.77102,5.4109949 29.235403,4.7005928 28.535782,4.0009722 27.243303,2.7084937 25.662596,1.8152194 23.87738,1.3684609 22.778264,1.093402 22.245214,1.0362135 20.810897,1.039472 18.588115,1.044522 16.843733,1.3653164 14.981367,2.1115317 11.586143,3.4719349 9.354846,6.0821402 8.613633,9.5606024 8.188337,11.556487 8.336784,14.368634 8.958075,16.085657 c 0.466259,1.28857 1.348401,2.812229 2.895256,5.000758 1.368934,1.936803 1.629015,2.343253 1.629007,2.545782 -5e-6,0.102173 -0.104933,0.980251 -0.233174,1.951284 -0.128241,0.971033 -0.233169,1.812505 -0.233174,1.869939 -5e-6,0.06796 0.12214,0.141829 0.349765,0.211536 1.299033,0.397811 7.50577,2.338169 8.860916,2.77011 l 1.648956,0.525591 z M 12.450223,14.724233 c -0.426584,-0.263644 -0.630004,-0.957727 -0.406226,-1.386073 0.120338,-0.230345 0.43036,-0.518705 0.618805,-0.575568 0.08057,-0.02431 0.161243,-0.09514 0.179269,-0.157387 0.01803,-0.06225 0.290049,-1.286252 0.604494,-2.7200033 L 14.018284,7.2783804 13.783625,7.0437224 C 13.582664,6.842761 13.548967,6.7647194 13.548967,6.5002536 c 0,-0.3539372 0.135214,-0.6003821 0.406325,-0.7405787 0.311299,-0.1609794 0.62509,-0.1228002 0.888008,0.1080449 l 0.232997,0.2045745 2.02635,-1.0447155 c 1.733019,-0.893484 2.021509,-1.0632281 1.992907,-1.1726017 -0.04895,-0.1871746 0.171977,-0.713213 0.347959,-0.8285214 0.451363,-0.2957438 0.958205,-0.2416506 1.291388,0.1378245 0.230354,0.2623581 0.315239,0.5878032 0.219201,0.8404029 -0.06454,0.1697419 -0.02363,0.1991952 2.766612,1.9920667 l 2.832117,1.8197775 0.192371,-0.1136362 c 0.105804,-0.0625 0.337926,-0.130875 0.515827,-0.1519447 0.994089,-0.1177351 1.769034,0.9626828 1.350901,1.8834066 -0.397779,0.875901 -1.451053,1.087236 -2.142149,0.4298122 L 26.200572,9.6080726 20.174574,11.615396 c -5.328779,1.775073 -6.026041,2.022851 -6.026369,2.141519 -0.0013,0.473366 -0.344232,0.972329 -0.753486,1.09635 -0.279555,0.08472 -0.689193,0.02875 -0.944496,-0.129032 z m 7.711097,-3.453129 c 4.797778,-1.6037191 5.912809,-1.9981583 5.912809,-2.0916387 0,-0.089052 -0.04159,-0.1079124 -0.183213,-0.083079 -0.176415,0.030935 -6.2922,0.6973971 -6.399656,0.6973971 -0.02898,0 -0.09063,0.1049421 -0.137011,0.2332046 -0.277846,0.76837 -1.136464,1.051822 -1.818641,0.600379 -0.233855,-0.154758 -0.281705,-0.165341 -0.378319,-0.08367 -1.906508,1.611621 -3.141959,2.668966 -3.141959,2.689006 0,0.08113 0.771497,-0.165104 6.14599,-1.961599 z m -4.780215,0.342918 c 0.879427,-0.748605 1.619941,-1.38196 1.645588,-1.407455 0.02565,-0.0255 0.01754,-0.175807 -0.01801,-0.3340237 -0.161443,-0.7185142 0.430589,-1.4778469 1.152244,-1.4778469 h 0.219108 L 19.069731,6.5543158 C 19.614445,5.100803 19.740514,4.7022462 19.669454,4.658329 19.619964,4.627745 19.560528,4.62396 19.537364,4.649919 c -0.02316,0.025956 -1.24949,1.7560782 -2.725169,3.8447154 -1.47568,2.0886366 -2.784475,3.9376266 -2.908435,4.1088646 -0.12396,0.171239 -0.202034,0.324907 -0.173497,0.341485 0.02854,0.01658 0.771416,-0.582354 1.650842,-1.330959 z m -1.013286,-0.237938 c 3.208944,-4.521592 4.854536,-6.8617778 4.889866,-6.953845 0.02651,-0.069077 0.0085,-0.097051 -0.05268,-0.081659 -0.05115,0.012877 -0.981569,0.480544 -2.067596,1.0392597 -1.970334,1.0136535 -1.974695,1.0163722 -2.020252,1.2592093 -0.05657,0.3015554 -0.364641,0.6230531 -0.597028,0.6230531 -0.09443,0 -0.171683,0.013727 -0.171683,0.030505 0,0.026087 -1.081903,4.9871849 -1.1593,5.3160059 -0.01864,0.07919 0.01244,0.116591 0.09688,0.116591 0.08574,0 0.421494,-0.418726 1.081789,-1.34912 z m 8.541708,-2.2858667 c 1.72221,-0.1948054 3.138786,-0.3560395 3.147947,-0.3582982 0.0092,-0.00226 0.01666,-0.042738 0.01666,-0.089955 0,-0.047216 0.05632,-0.1963257 0.125167,-0.3313543 L 26.324467,8.0651034 23.529386,6.2685275 20.734304,4.4719515 20.522766,4.6009368 c -0.116346,0.070942 -0.256705,0.1290973 -0.311908,0.1292343 -0.07033,1.745e-4 -0.311534,0.563582 -0.805872,1.8823544 l -0.705503,1.8821053 0.178861,0.109076 c 0.24038,0.1465926 0.448205,0.4205493 0.500846,0.6602194 0.03537,0.1610505 0.07549,0.1952662 0.221132,0.1886116 0.09786,-0.00447 1.587001,-0.1675156 3.30921,-0.3623209 z"
     id="path24" /></svg>
