<?xml version="1.0" encoding="UTF-8" standalone="no"?>
<svg
   width="42"
   height="32"
   viewBox="0 0 42 32"
   fill="none"
   version="1.1"
   id="svg22"
   sodipodi:docname="icon-photo.svg"
   xml:space="preserve"
   inkscape:version="1.3.2 (091e20e, 2023-11-25, custom)"
   xmlns:inkscape="http://www.inkscape.org/namespaces/inkscape"
   xmlns:sodipodi="http://sodipodi.sourceforge.net/DTD/sodipodi-0.dtd"
   xmlns:xlink="http://www.w3.org/1999/xlink"
   xmlns="http://www.w3.org/2000/svg"
   xmlns:svg="http://www.w3.org/2000/svg"><sodipodi:namedview
     id="namedview22"
     pagecolor="#ffffff"
     bordercolor="#000000"
     borderopacity="0.25"
     inkscape:showpageshadow="2"
     inkscape:pageopacity="0.0"
     inkscape:pagecheckerboard="0"
     inkscape:deskcolor="#d1d1d1"
     inkscape:zoom="10.54031"
     inkscape:cx="33.727659"
     inkscape:cy="15.986246"
     inkscape:window-width="1366"
     inkscape:window-height="715"
     inkscape:window-x="-8"
     inkscape:window-y="-8"
     inkscape:window-maximized="1"
     inkscape:current-layer="svg22" /><defs
     id="defs22"><linearGradient
       id="linearGradient23"
       inkscape:collect="always"><stop
         style="stop-color:#ffdb6e;stop-opacity:1;"
         offset="0"
         id="stop23" /><stop
         style="stop-color:#ffbc5d;stop-opacity:1;"
         offset="1"
         id="stop24" /></linearGradient><linearGradient
       id="paint0_linear"
       x1="3.69867"
       y1="4.89825"
       x2="22.5688"
       y2="37.2522"
       gradientUnits="userSpaceOnUse"><stop
         offset="0.259336"
         stop-color="#FFDB6E"
         id="stop5" /><stop
         offset="1"
         stop-color="#FFBC5E"
         id="stop6" /></linearGradient><linearGradient
       id="paint1_linear"
       x1="1.17724"
       y1="18.7359"
       x2="2.78931"
       y2="19.2346"
       gradientUnits="userSpaceOnUse"><stop
         offset="0.259336"
         stop-color="#FFDB6E"
         id="stop7" /><stop
         offset="1"
         stop-color="#FFBC5E"
         id="stop8" /></linearGradient><linearGradient
       id="paint2_linear"
       x1="1.17724"
       y1="18.7359"
       x2="2.78931"
       y2="19.2346"
       gradientUnits="userSpaceOnUse"><stop
         offset="0.259336"
         stop-color="#FFDB6E"
         id="stop9" /><stop
         offset="1"
         stop-color="#FFBC5E"
         id="stop10" /></linearGradient><linearGradient
       id="paint3_linear"
       x1="3.26667"
       y1="0.900025"
       x2="27.6816"
       y2="36.6089"
       gradientUnits="userSpaceOnUse"><stop
         offset="0.259336"
         stop-color="#FFDB6E"
         id="stop11" /><stop
         offset="1"
         stop-color="#FFBC5E"
         id="stop12" /></linearGradient><linearGradient
       id="paint4_linear"
       x1="3.26667"
       y1="0.900025"
       x2="27.6816"
       y2="36.6089"
       gradientUnits="userSpaceOnUse"><stop
         offset="0.259336"
         stop-color="#FFDB6E"
         id="stop13" /><stop
         offset="1"
         stop-color="#FFBC5E"
         id="stop14" /></linearGradient><linearGradient
       id="paint5_linear"
       x1="14.1208"
       y1="12.223"
       x2="27.511"
       y2="27.0155"
       gradientUnits="userSpaceOnUse"><stop
         offset="0.259336"
         stop-color="#FFDB6E"
         id="stop15" /><stop
         offset="1"
         stop-color="#FFBC5E"
         id="stop16" /></linearGradient><linearGradient
       id="paint6_linear"
       x1="14.1208"
       y1="12.223"
       x2="27.511"
       y2="27.0155"
       gradientUnits="userSpaceOnUse"><stop
         offset="0.259336"
         stop-color="#FFDB6E"
         id="stop17" /><stop
         offset="1"
         stop-color="#FFBC5E"
         id="stop18" /></linearGradient><linearGradient
       id="paint7_linear"
       x1="16.2288"
       y1="14.5995"
       x2="25.5157"
       y2="24.8592"
       gradientUnits="userSpaceOnUse"><stop
         offset="0.259336"
         stop-color="#FFDB6E"
         id="stop19" /><stop
         offset="1"
         stop-color="#FFBC5E"
         id="stop20" /></linearGradient><linearGradient
       id="paint8_linear"
       x1="16.2288"
       y1="14.5995"
       x2="25.5157"
       y2="24.8592"
       gradientUnits="userSpaceOnUse"><stop
         offset="0.259336"
         stop-color="#FFDB6E"
         id="stop21" /><stop
         offset="1"
         stop-color="#FFBC5E"
         id="stop22" /></linearGradient><linearGradient
       inkscape:collect="always"
       xlink:href="#linearGradient23"
       id="linearGradient24"
       x1="11.954107"
       y1="4.079576"
       x2="29.505772"
       y2="26.659555"
       gradientUnits="userSpaceOnUse" /></defs><path
     style="fill:url(#linearGradient24);fill-opacity:1"
     d="m 11.358672,30.682027 c -0.110634,-0.04787 -0.220121,-0.136463 -0.243304,-0.196877 -0.02318,-0.06041 -0.04322,-0.538102 -0.04453,-1.06153 l -0.0024,-0.951687 -2.6667857,-3.438689 C 6.934941,23.141965 5.6732665,21.463171 5.5979522,21.30259 5.4618939,21.012495 5.4610172,20.974277 5.4610172,15.333545 V 9.6564634 L 5.6110556,9.3518557 C 5.8040201,8.9600997 6.1920648,8.5738982 6.5811339,8.3863853 7.0510155,8.1599247 7.7418764,8.1702854 8.2323697,8.4111486 8.4391928,8.5127118 8.7167451,8.7222902 8.8600861,8.8851343 9.3300646,9.4190581 9.3214325,9.3335576 9.3214325,13.454737 v 3.677836 l 0.2978436,0.04082 c 0.6358049,0.08715 0.8135949,0.223304 2.5865179,1.980826 1.162512,1.152414 2.055705,1.969991 2.862623,2.620278 1.345746,1.084523 1.761698,1.510423 2.035553,2.084234 0.345672,0.724292 0.360019,0.877351 0.360019,3.840827 0,2.943689 0.0066,2.884898 -0.341061,3.017096 -0.213326,0.08111 -0.585089,-0.08311 -0.628923,-0.277801 -0.01861,-0.08264 -0.04228,-1.361909 -0.05261,-2.842817 -0.025,-3.583421 0.07991,-3.32556 -2.05007,-5.038903 -0.982428,-0.790259 -1.771384,-1.505915 -2.961258,-2.686136 -1.042335,-1.033878 -1.6859416,-1.624608 -1.8008725,-1.65292 -0.5097556,-0.125571 -1.0214482,0.259687 -1.0214482,0.769057 0,0.151399 0.048023,0.347459 0.1067172,0.435689 0.058694,0.08823 0.7448103,0.804225 1.5247015,1.5911 0.779892,0.786875 1.417985,1.48174 1.417985,1.544144 0,0.354431 -0.331057,0.622435 -0.665261,0.538555 C 10.911468,23.076443 10.156617,22.365264 9.31444,21.51623 7.9868817,20.177863 7.7690052,19.930001 7.6764279,19.652789 7.4464108,18.964028 7.5872955,18.269439 8.0647212,17.738426 L 8.3532106,17.417557 8.3344944,13.666772 8.3157782,9.9159872 8.1709028,9.6830365 C 7.7918492,9.0735417 6.9081815,9.1154089 6.5803141,9.7583969 6.4750207,9.9648899 6.466866,10.366701 6.4667724,15.352987 c -8.72e-5,4.648897 0.013003,5.39746 0.097239,5.560353 0.053537,0.103528 1.2494992,1.675781 2.6576944,3.493895 1.4081952,1.818114 2.6362392,3.417484 2.7289872,3.554156 0.167767,0.247217 0.168529,0.254244 0.148406,1.367317 -0.01842,1.01908 -0.0318,1.129932 -0.149989,1.243439 -0.18477,0.177445 -0.359241,0.209913 -0.590438,0.10988 z m 13.499491,0.03144 c -0.326441,-0.132319 -0.322152,-0.0922 -0.322152,-3.013908 0,-2.963476 0.01435,-3.116535 0.360019,-3.840827 0.273635,-0.57335 0.699634,-1.010266 2.006435,-2.057856 0.784379,-0.628792 1.67192,-1.440738 2.861163,-2.617466 1.807436,-1.788415 1.982761,-1.923071 2.617096,-2.010016 l 0.297843,-0.04082 v -3.677836 c 0,-4.1211794 -0.0086,-4.0356789 0.461347,-4.5696027 0.143341,-0.1628441 0.420893,-0.3724225 0.627716,-0.4739857 0.490494,-0.2408632 1.181354,-0.2512239 1.651236,-0.024763 0.389069,0.1875129 0.777114,0.5737144 0.970078,0.9654704 l 0.150039,0.3046077 v 5.6770813 c 0,5.640732 -8.77e-4,5.67895 -0.136935,5.969045 -0.07532,0.160581 -1.336989,1.839375 -2.803721,3.730654 l -2.666786,3.438689 -0.0024,0.961259 c -0.0013,0.528693 -0.03096,1.014662 -0.06589,1.079931 -0.09797,0.183063 -0.436249,0.278415 -0.640413,0.180519 -0.290863,-0.139469 -0.332179,-0.319296 -0.333214,-1.450304 -9.27e-4,-1.012822 0.0042,-1.05279 0.163669,-1.287851 0.09055,-0.133425 1.316786,-1.730138 2.724981,-3.548252 1.408196,-1.818114 2.604158,-3.390367 2.657695,-3.493895 0.08423,-0.162893 0.09733,-0.911456 0.09724,-5.560353 -9.3e-5,-4.986286 -0.0082,-5.3880968 -0.113541,-5.5945898 -0.242891,-0.4763389 -0.781002,-0.6490512 -1.232173,-0.395479 -0.52718,0.296292 -0.50093,0.079864 -0.522007,4.3038538 l -0.01872,3.750785 0.28849,0.320869 c 0.477425,0.531013 0.61831,1.225602 0.388293,1.914363 -0.09258,0.277212 -0.310454,0.525074 -1.638012,1.863441 -0.842177,0.849034 -1.597028,1.560213 -1.677445,1.580396 -0.334204,0.08388 -0.665261,-0.184124 -0.665261,-0.538555 0,-0.0624 0.638093,-0.757269 1.417985,-1.544144 0.779891,-0.786875 1.466007,-1.50287 1.524701,-1.5911 0.0587,-0.08823 0.106718,-0.28429 0.106718,-0.435689 0,-0.509531 -0.512429,-0.895151 -1.021449,-0.768675 -0.114502,0.02845 -0.774098,0.633666 -1.833312,1.682164 -1.205769,1.19357 -2.009636,1.922995 -2.964083,2.689595 -1.36707,1.098014 -1.612802,1.357101 -1.852623,1.95331 -0.140539,0.349389 -0.145309,0.438949 -0.162578,3.052508 -0.0098,1.480908 -0.03315,2.760175 -0.05192,2.842817 -0.02113,0.09302 -0.118961,0.185703 -0.256818,0.243303 -0.12248,0.05118 -0.230927,0.0912 -0.240995,0.08893 -0.01007,-0.0023 -0.07771,-0.02819 -0.150318,-0.05762 z M 20.837798,20.979013 C 20.609543,20.882936 11.565107,11.757896 11.31942,11.375808 9.8608799,9.1075055 9.862928,6.3307042 11.32478,4.1091439 11.644701,3.6229642 12.448045,2.791007 12.929464,2.4473064 c 1.96537,-1.4031427 4.60591,-1.60517872 6.758425,-0.5171084 0.311289,0.157353 0.725508,0.4061516 0.920487,0.5528859 0.194979,0.1467343 0.392134,0.2523507 0.438123,0.2347031 0.04599,-0.017648 0.236818,-0.1473946 0.424064,-0.2883268 0.802084,-0.6036928 2.012322,-1.0539606 3.144937,-1.1700707 1.482634,-0.1519922 3.12808,0.2693657 4.358933,1.1162152 1.064482,0.7323826 2.023895,2.0080944 2.450396,3.2582411 0.668507,1.9595059 0.362192,4.1171431 -0.828991,5.8392832 -0.359734,0.520083 -9.283706,9.470418 -9.498517,9.526578 -0.07137,0.01866 -0.188154,0.0093 -0.259523,-0.02069 z m 4.455524,-5.499486 C 28.555526,12.21101 29.62083,11.104745 29.849653,10.748008 31.248611,8.5670138 30.963745,5.7228597 29.163673,3.899068 27.529911,2.2437773 25.093849,1.7916077 22.966707,2.7488181 22.488653,2.9639414 22.072769,3.2372206 21.572831,3.6647386 21.081152,4.0851942 20.914335,4.0854091 20.424882,3.6662175 19.27123,2.6781747 18.159717,2.2644754 16.685418,2.2744081 c -0.923876,0.00622 -1.536817,0.1467259 -2.343527,0.537196 -2.921178,1.4139314 -3.964818,5.0546311 -2.250193,7.8497179 0.247956,0.404206 1.030736,1.221111 4.585839,4.785764 2.357766,2.364099 4.302879,4.298362 4.322475,4.298362 0.01959,0 1.951584,-1.919665 4.29331,-4.265921 z m -5.830103,-0.6618 c -0.113697,-0.06933 -0.237782,-0.184084 -0.275744,-0.255016 -0.04001,-0.07477 -0.06902,-0.539775 -0.06902,-1.106448 v -0.977479 l -0.892113,-0.0037 c -1.030304,-0.0042 -1.280887,-0.06797 -1.490014,-0.378998 -0.142024,-0.211229 -0.148229,-0.274467 -0.148229,-1.510566 0,-1.3931725 0.04781,-1.6522441 0.335132,-1.815985 0.09989,-0.056928 0.493925,-0.09737 1.157129,-0.118764 l 1.005655,-0.03244 0.01794,-0.9943364 C 19.130985,6.1250482 19.136785,6.1204528 21,6.1204528 c 1.863216,0 1.869011,0.0046 1.896051,1.5035794 l 0.01794,0.9943364 1.005655,0.03244 c 0.663204,0.021394 1.057235,0.061836 1.157129,0.118764 0.287322,0.1637409 0.335132,0.4228125 0.335132,1.8159844 0,1.236099 -0.0062,1.299337 -0.148229,1.510566 -0.209127,0.31103 -0.45971,0.374768 -1.490014,0.378998 l -0.892113,0.0037 v 0.991218 c 0,1.481677 0.0094,1.474365 -1.894545,1.474015 -1.189678,-2.19e-4 -1.337055,-0.01243 -1.523783,-0.12629 z m 2.445114,-1.923705 v -1.012143 l 0.220595,-0.220595 0.220595,-0.220595 h 1.012143 1.012142 v -0.87007 -0.8700691 l -0.989434,-0.022043 c -1.03425,-0.023042 -1.249993,-0.080005 -1.38831,-0.3665605 -0.02911,-0.060307 -0.06806,-0.5621938 -0.08655,-1.1153037 l -0.03362,-1.0056546 h -0.875893 -0.875893 l -0.03362,1.0056544 c -0.01849,0.5531099 -0.05744,1.0549966 -0.08655,1.1153037 -0.138317,0.2865555 -0.35406,0.3435188 -1.38831,0.3665605 l -0.989434,0.022043 v 0.8700693 0.87007 h 1.012142 1.012143 l 0.220595,0.220595 0.220595,0.220595 v 1.012143 1.012142 h 0.908332 0.908333 z"
     id="path23" /></svg>
