<?xml version="1.0" encoding="UTF-8" standalone="no"?>
<svg
   width="40"
   height="40"
   viewBox="0 0 22 40"
   fill="none"
   version="1.1"
   id="svg5"
   sodipodi:docname="icon-app.svg"
   xml:space="preserve"
   inkscape:version="1.3.2 (091e20e, 2023-11-25, custom)"
   xmlns:inkscape="http://www.inkscape.org/namespaces/inkscape"
   xmlns:sodipodi="http://sodipodi.sourceforge.net/DTD/sodipodi-0.dtd"
   xmlns:xlink="http://www.w3.org/1999/xlink"
   xmlns="http://www.w3.org/2000/svg"
   xmlns:svg="http://www.w3.org/2000/svg"><sodipodi:namedview
     id="namedview5"
     pagecolor="#ffffff"
     bordercolor="#000000"
     borderopacity="0.25"
     inkscape:showpageshadow="2"
     inkscape:pageopacity="0.0"
     inkscape:pagecheckerboard="0"
     inkscape:deskcolor="#d1d1d1"
     showguides="false"
     inkscape:zoom="8.4322484"
     inkscape:cx="16.069261"
     inkscape:cy="19.271254"
     inkscape:window-width="1366"
     inkscape:window-height="715"
     inkscape:window-x="-8"
     inkscape:window-y="-8"
     inkscape:window-maximized="1"
     inkscape:current-layer="svg5" /><defs
     id="defs5"><linearGradient
       id="linearGradient5"
       inkscape:collect="always"><stop
         style="stop-color:#ffdb6e;stop-opacity:1;"
         offset="0"
         id="stop6" /><stop
         style="stop-color:#ffbc5e;stop-opacity:1;"
         offset="1"
         id="stop7" /></linearGradient><linearGradient
       id="paint0_linear"
       x1="2.12767"
       y1="1"
       x2="30.7018"
       y2="17.5237"
       gradientUnits="userSpaceOnUse"
       gradientTransform="translate(-15.061226,-2.0160696)"><stop
         offset="0.259336"
         stop-color="#FFDB6E"
         id="stop2" /><stop
         offset="1"
         stop-color="#FFBC5E"
         id="stop3" /></linearGradient><linearGradient
       id="paint1_linear"
       x1="1.59976"
       y1="8.08974e-07"
       x2="31.8368"
       y2="17.6727"
       gradientUnits="userSpaceOnUse"
       gradientTransform="translate(-31.901337,-1.8974773)"><stop
         offset="0.259336"
         stop-color="#FFDB6E"
         id="stop4" /><stop
         offset="1"
         stop-color="#FFBC5E"
         id="stop5" /></linearGradient><linearGradient
       inkscape:collect="always"
       xlink:href="#linearGradient5"
       id="linearGradient7"
       x1="7.2471495"
       y1="5.2180624"
       x2="14.955651"
       y2="26.92046"
       gradientUnits="userSpaceOnUse"
       gradientTransform="matrix(1.137495,0,0,1.137495,-1.9933968,-2.2660725)" /></defs><path
     style="fill:url(#linearGradient7);fill-opacity:1;stroke-width:1.1375"
     d="M 1.1910787,39.543648 C 0.33535941,39.376531 -0.6203844,38.670272 -1.0015465,37.923376 -1.4330103,37.077916 -1.4154321,37.582445 -1.4154321,26.043987 V 15.405526 l -0.2108208,-0.04 c -0.5986369,-0.113562 -1.2303279,-0.288209 -1.6378892,-0.452829 -1.8509891,-0.747648 -3.3090535,-2.426181 -3.8363826,-4.416466 -0.2364982,-0.8926095 -0.2357382,-2.3664205 0.00167,-3.2487975 0.7025314,-2.611049 2.8749898,-4.4993013 5.5727513,-4.8437109 0.3614078,-0.046139 0.3996618,-0.072154 0.56534026,-0.3844615 0.21979516,-0.4143088 0.86199302,-1.03117427 1.3141837,-1.26233987 0.76138004,-0.3892268 0.45479217,-0.3782017 10.54411244,-0.3791744 6.023208,-5.807e-4 9.585519,0.027041 9.845467,0.076338 0.918059,0.1741061 1.881485,0.86543507 2.267419,1.62703807 0.430163,0.8488879 0.41266,0.3450288 0.41266,11.8795451 v 10.638461 l 0.17249,0.03366 c 1.685416,0.328893 2.576633,0.75604 3.602227,1.726494 0.723965,0.685041 1.032782,1.093952 1.438784,1.905118 0.471719,0.942466 0.643682,1.708348 0.64079,2.853927 -0.0016,0.625877 -0.04664,1.138998 -0.129905,1.479281 -0.65636,2.682358 -2.867046,4.652668 -5.613719,5.003324 -0.361408,0.04614 -0.399661,0.07215 -0.565341,0.384461 -0.215888,0.406954 -0.859939,1.030248 -1.292674,1.251013 -0.791483,0.403784 -0.464943,0.392061 -10.668848,0.383012 -5.2089539,-0.0047 -9.6260656,-0.03872 -9.8158043,-0.07577 z M 21.008224,38.121204 c 0.168657,-0.09077 0.388635,-0.252878 0.488842,-0.360249 l 0.182192,-0.19522 -0.220523,-0.04892 C 19.780472,37.144534 18.47876,36.286576 17.416046,34.852284 17.297539,34.69234 17.046039,34.235242 16.857159,33.836511 l -0.34342,-0.724965 H 8.2007805 -0.11217664 l 7.4847e-4,1.820724 c 7.2004e-4,1.749556 0.007735,1.835708 0.18064559,2.204035 0.26700649,0.568921 0.68629971,0.936421 1.27468828,1.117231 0.1056847,0.03248 4.504394,0.05312 9.7749113,0.04588 l 9.582759,-0.01317 z M 9.4855139,37.436033 c -1.2386785,-0.61726 -1.454467,-2.252245 -0.4202918,-3.184472 0.7199478,-0.648977 1.8523659,-0.651283 2.5674709,-0.0052 1.338109,1.208901 0.514481,3.388274 -1.280496,3.388274 -0.350094,0 -0.5687201,-0.0501 -0.8666831,-0.198573 z M 10.655409,36.28373 c 0.148572,-0.05701 0.348415,-0.420809 0.348415,-0.634256 0,-0.08407 -0.08177,-0.247925 -0.18172,-0.364119 -0.379412,-0.441091 -1.1215351,-0.149639 -1.1215351,0.440458 0,0.43425 0.5062521,0.730056 0.9548401,0.557917 z m 13.398873,-0.100475 c 1.768153,-0.452218 3.141845,-1.743991 3.714883,-3.493349 0.281765,-0.860167 0.297274,-2.181401 0.03555,-3.028152 -0.442431,-1.431355 -1.424212,-2.586381 -2.743696,-3.227847 -0.857744,-0.41699 -1.550817,-0.553587 -2.557878,-0.504127 -1.395605,0.06855 -2.395265,0.518756 -3.420253,1.540365 -0.518848,0.517137 -0.679835,0.740903 -0.970049,1.348326 -0.438243,0.917251 -0.548523,1.385111 -0.54211,2.299863 0.01046,1.499391 0.485352,2.627875 1.549958,3.683569 0.746349,0.740101 1.385084,1.117813 2.310152,1.366094 0.770769,0.206869 1.849723,0.213143 2.623449,0.01525 z m -2.969395,-1.741174 c -0.470417,-0.114346 -0.702249,-0.226734 -0.973849,-0.472108 -0.599356,-0.541483 -0.809171,-1.328219 -0.558371,-2.0937 0.12166,-0.371323 0.29823,-0.577359 1.751253,-2.043501 1.819725,-1.836151 2.068624,-2.012034 2.843336,-2.009224 1.44758,0.0052 2.38392,1.439826 1.775214,2.71982 -0.226205,0.475666 -3.304077,3.569299 -3.725983,3.745063 -0.308086,0.128348 -0.886676,0.208322 -1.1116,0.15365 z m 1.157512,-1.874808 0.526226,-0.530289 -0.463764,-0.463762 -0.463762,-0.463764 -0.550595,0.579635 c -0.605852,0.637803 -0.677339,0.857341 -0.395745,1.215329 0.157503,0.200233 0.367093,0.270432 0.659095,0.220755 0.08928,-0.01519 0.399121,-0.266245 0.688545,-0.557904 z m 2.560598,-2.80885 c 0,-0.283343 -0.240705,-0.602823 -0.490104,-0.650499 -0.28973,-0.05539 -0.581289,0.112726 -1.079069,0.622168 l -0.457572,0.468297 0.457572,0.462804 0.457573,0.462804 0.5558,-0.568128 c 0.439466,-0.449216 0.5558,-0.616128 0.5558,-0.797446 z m -8.561986,1.781552 c -0.02933,-0.476154 0.142322,-1.828052 0.294911,-2.3227 0.581397,-1.884717 2.100254,-3.513801 3.897337,-4.180173 0.433047,-0.160577 0.764962,-0.248827 1.514076,-0.402566 l 0.17249,-0.0354 V 15.0945 5.589858 h -8.586153 c -4.9490461,0 -8.5861524,0.028828 -8.5861524,0.068055 0,0.03743 0.1021584,0.2875402 0.2270315,0.5558 0.7822849,1.6806335 0.7466859,3.874932 -0.089953,5.544741 -0.7292765,1.455527 -2.0586272,2.670847 -3.5102096,3.209105 -0.4330467,0.160577 -0.76496197,0.248827 -1.51407529,0.402567 l -0.17248975,0.0354 v 8.201728 8.201728 l 8.18367624,-0.01951 8.1836763,-0.01951 z M 1.4103923,30.281977 c -0.1765142,-0.142778 -0.1815806,-0.181095 -0.205195,-1.551821 -0.01332,-0.772986 -0.00307,-1.518071 0.02275,-1.655746 0.087405,-0.465894 0.7317119,-0.664263 1.0678246,-0.328759 0.1439432,0.143682 0.1641292,0.27471 0.1985634,1.288869 l 0.038334,1.128926 2.7981662,0.04073 c 1.538991,0.0224 2.8085503,0.04828 2.8212425,0.0575 0.012694,0.0092 0.072299,0.134564 0.1324522,0.278538 0.1278522,0.305993 0.035126,0.688947 -0.1968845,0.813115 -0.084994,0.04549 -1.3918526,0.07504 -3.3182437,0.07504 -3.0135758,0 -3.1873874,-0.0076 -3.3590058,-0.146394 z M 1.6017565,25.830942 C 1.30505,25.708225 1.1910787,25.448736 1.1910787,24.895919 c 0,-0.654477 0.1968788,-0.937828 0.6516277,-0.937828 0.2194615,0 0.3315218,0.05038 0.4699072,0.211263 0.1531523,0.178051 0.1817205,0.29428 0.1817205,0.739347 0,0.439337 -0.028983,0.560526 -0.1724898,0.721128 -0.1972007,0.220699 -0.4810546,0.299977 -0.7200878,0.201113 z m 7.2062359,6.74e-4 C 8.4236954,25.671095 8.3973135,25.534707 8.3973135,23.708564 v -1.702657 l -1.7572104,-0.02435 c -1.73866,-0.02409 -1.7592964,-0.02631 -1.9548819,-0.2102 L 4.4875473,21.5855 v -1.583177 -1.583177 l 0.1976739,-0.185853 c 0.1955855,-0.183891 0.2162219,-0.18611 1.9548819,-0.210201 l 1.7572104,-0.02434 v -1.71544 c 0,-1.702865 0.00136,-1.717016 0.1850169,-1.930535 l 0.1850182,-0.2151 h 1.5848484 1.584847 l 0.185017,0.215095 c 0.183662,0.21352 0.185019,0.22767 0.185019,1.930535 v 1.715441 l 1.769992,0.02434 1.769992,0.02435 0.184891,0.215096 c 0.182005,0.211739 0.18489,0.238891 0.18489,1.739787 0,1.500896 -0.0028,1.528048 -0.18489,1.739787 l -0.184891,0.215096 -1.769992,0.02434 -1.769992,0.02435 v 1.715439 c 0,1.70242 -0.0014,1.717073 -0.184864,1.930536 l -0.184862,0.215095 -1.482537,0.01663 c -0.8153971,0.0091 -1.5564677,-0.01425 -1.6468246,-0.05199 z M 11.003824,22.91168 c 0,-1.761339 0.04731,-2.056227 0.348414,-2.171771 0.06825,-0.0262 0.89748,-0.04762 1.842725,-0.04762 h 1.718626 V 20.00233 19.312371 h -1.718626 c -0.945245,0 -1.774471,-0.02143 -1.842725,-0.04763 -0.301105,-0.115537 -0.348414,-0.410425 -0.348414,-2.171764 V 15.402604 H 10.352197 9.7005689 v 1.690373 c 0,1.761339 -0.04731,2.056227 -0.3484148,2.171771 -0.06825,0.0262 -0.8974802,0.04763 -1.8427249,0.04763 H 5.7908027 v 0.689959 0.689959 h 1.7186265 c 0.9452447,0 1.7744718,0.02143 1.8427249,0.04762 0.3011058,0.115544 0.3484148,0.410432 0.3484148,2.171771 v 1.690372 h 0.6516281 0.651627 z m 8.990156,-8.183544 c -0.31916,-0.04808 -0.480666,-0.364429 -0.480666,-0.941499 0,-0.656996 0.195871,-0.944546 0.643397,-0.944546 0.474719,0 0.621527,0.223141 0.621527,0.94469 0,0.789342 -0.199972,1.029372 -0.784258,0.941355 z m -0.292496,-2.810171 -0.18817,-0.188172 V 9.9630815 8.1963685 h -2.41834 -2.41834 l -0.18817,-0.18817 c -0.25819,-0.258189 -0.254059,-0.643117 0.0096,-0.890901 l 0.197729,-0.185853 2.709208,-0.02279 c 2.98649,-0.02513 3.180173,-9.83e-4 3.338783,0.416191 0.05011,0.131802 0.0712,1.000491 0.05701,2.348773 l -0.02251,2.1396125 -0.180983,0.146454 c -0.258127,0.208878 -0.664081,0.189972 -0.895771,-0.04171 z M 0.30946434,13.993882 C 1.390692,13.758627 2.2854365,13.242342 3.0579629,12.407942 3.8316415,11.572298 4.2564038,10.654787 4.4124499,9.4821755 4.7494385,6.9498555 3.0467074,4.4678786 0.53105747,3.8244837 -2.1477017,3.1393724 -4.884986,4.6572141 -5.7633171,7.3147545 c -0.2823323,0.854244 -0.2968825,2.173964 -0.033387,3.0281525 0.5568184,1.805063 2.0953541,3.25639 3.8575464,3.638892 0.6210175,0.134799 1.65898412,0.140376 2.24862174,0.01208 z M -2.6272576,10.553728 C -3.7851028,9.4054465 -4.2400371,8.9015365 -4.3748374,8.6180095 c -0.363616,-0.764794 -0.1658673,-1.685478 0.488763,-2.2755947 0.7467474,-0.6731557 2.0325953,-0.5821218 2.7731637,0.1963307 0.14530478,0.152738 0.30240196,0.277706 0.34910637,0.277706 0.0467055,0 0.20380158,-0.124968 0.34910633,-0.277706 0.94968552,-0.9982683 2.6208477,-0.7998996 3.2292495,0.383316 0.2240774,0.435783 0.2629024,1.016537 0.101146,1.512975 -0.1213468,0.372426 -0.2935306,0.572862 -1.7541925,2.0420285 -1.56191265,1.571009 -1.63039667,1.62907 -1.92153284,1.62907 -0.28994526,0 -0.36385056,-0.06145 -1.86723206,-1.552407 z M 1.7277125,7.8277115 c 0,-0.351558 -0.2968521,-0.658615 -0.6367265,-0.658615 -0.23782067,0 -0.35826427,0.08158 -0.92808221,0.628629 -0.57486611,0.551895 -0.68884084,0.628629 -0.93371395,0.628629 -0.24261174,0 -0.35511114,-0.07355 -0.86424634,-0.565034 -0.3219301,-0.310768 -0.664251,-0.605912 -0.7607129,-0.655874 -0.3619482,-0.187471 -0.8595526,0.157882 -0.8595526,0.596556 0,0.24489 0.1110923,0.380724 1.2457588,1.52321 L -0.76380433,10.579555 0.48195409,9.3216775 C 1.5498765,8.2433665 1.7277125,8.0300975 1.7277125,7.8277115 Z M 22.119075,3.7691337 C 22.117862,2.9300041 21.72857,2.2684942 21.00923,1.8832061 L 20.701576,1.7184233 H 11.003824 1.3060715 L 0.99942333,1.8834523 C 0.83076693,1.9742188 0.61517863,2.1316565 0.52034,2.2333148 L 0.34790371,2.4181483 0.96328963,2.5959667 C 2.0042557,2.8967585 3.1000206,3.5073497 3.638463,4.0866475 l 0.1858519,0.1999552 h 9.1477561 9.147754 z M 5.513619,3.5676557 C 5.2205889,3.4348234 5.0701609,3.0740318 5.1835077,2.775906 5.3191756,2.4190741 5.4546627,2.37511 6.42675,2.372489 c 0.8594617,-0.00232 0.913586,0.00688 1.0924343,0.1857325 0.2574118,0.257412 0.2540414,0.6431649 -0.00773,0.8891226 C 7.3351775,3.6129421 7.2370651,3.633653 6.5340078,3.653674 5.9833749,3.6693544 5.6819433,3.6439484 5.513652,3.5676555 Z m 3.91094,-0.00382 C 9.0355551,3.3944942 8.9483161,2.8339681 9.2647023,2.5367383 9.4403645,2.3717123 9.4707959,2.3700509 12.317822,2.3700509 h 2.87569 l 0.155263,0.1724896 C 15.57058,2.7889541 15.608684,2.9457372 15.513277,3.21942 15.36208,3.653147 15.215559,3.6736453 12.290375,3.6703054 10.258221,3.6679854 9.6083399,3.6438414 9.424559,3.563837 Z"
     id="path5" /></svg>
